<svg width="30" height="30" viewBox="0 0 30 30" fill="none" xmlns="http://www.w3.org/2000/svg">
<path d="M24.8995 5.10052C22.2552 2.45627 18.7395 1 15 1C11.2604 1 7.74472 2.45627 5.10041 5.10052C2.45622 7.74477 1 11.2605 1 15C1 18.7395 2.45622 22.2552 5.10041 24.8995C7.74472 27.5437 11.2604 29 15 29C15.453 29 15.8203 28.6327 15.8203 28.1797C15.8203 27.7267 15.453 27.3594 15 27.3594C8.18501 27.3594 2.64062 21.815 2.64062 15C2.64062 8.18501 8.18501 2.64062 15 2.64062C21.8149 2.64062 27.3594 8.18501 27.3594 15V18.2949C27.3594 19.6594 26.2493 20.7695 24.8848 20.7695C23.5203 20.7695 22.4102 19.6594 22.4102 18.2949V15C22.4102 10.914 19.086 7.58984 15 7.58984C10.914 7.58984 7.58984 10.914 7.58984 15C7.58984 19.086 10.914 22.4102 15 22.4102C17.4235 22.4102 19.579 21.2406 20.9318 19.4364C21.428 21.1518 23.0117 22.4102 24.8848 22.4102C27.1539 22.4102 29 20.5641 29 18.2949V15C29 11.2605 27.5437 7.74477 24.8995 5.10052ZM15 20.7695C11.8186 20.7695 9.23047 18.1813 9.23047 15C9.23047 11.8187 11.8186 9.23047 15 9.23047C18.1813 9.23047 20.7695 11.8187 20.7695 15C20.7695 18.1813 18.1813 20.7695 15 20.7695Z" fill="white" stroke="white" stroke-width="1.2"/>
</svg>
