<svg width="28" height="28" viewBox="0 0 28 28" fill="none" xmlns="http://www.w3.org/2000/svg">
<path d="M26.4571 28C27.3155 28 28 27.3046 28 26.4571V1.54288C28 0.684517 27.3046 0 26.4571 0H1.54288C0.695383 0 0 0.695382 0 1.54288V26.4571C0 27.3155 0.695383 28 1.54288 28H26.4571Z" fill="white"/>
<path d="M19.3186 27.9999V17.1563H22.9584L23.5017 12.9297H19.3186V10.2351C19.3186 9.00731 19.6554 8.18155 21.4156 8.18155H23.6538V4.38954C23.2627 4.33522 21.9371 4.22656 20.3942 4.22656C17.1672 4.22656 14.9615 6.19319 14.9615 9.81135V12.9297H11.3108V17.1563H14.9615V27.9999H19.3186Z" fill="#227BEF"/>
</svg>
