<svg width="29" height="28" viewBox="0 0 29 28" fill="none" xmlns="http://www.w3.org/2000/svg">
<path d="M27.978 9.23208C27.9124 7.74433 27.6718 5.72152 27.3271 4.83523C26.9715 3.89447 26.4244 3.0522 25.7076 2.35202C25.0073 1.64095 24.1593 1.08841 23.2293 0.738425C22.3377 0.393784 21.32 0.153198 19.832 0.0876025C18.3328 0.0164522 17.8569 0 14.0546 0C10.2524 0 9.77646 0.0164522 8.28287 0.0820473C6.79483 0.147642 5.77182 0.388443 4.88558 0.73287C3.94442 1.08841 3.10199 1.63539 2.40167 2.35202C1.69046 3.0522 1.13803 3.90002 0.787763 4.82989C0.443055 5.72152 0.202422 7.73877 0.136814 9.22652C0.0656497 10.7254 0.0491943 10.2012 0.0491943 14.0027C0.0491943 17.8043 0.0656497 17.2801 0.131258 18.7734C0.196865 20.2611 0.437712 22.284 0.78242 23.1702C1.13803 24.111 1.69046 24.9533 2.40167 25.6534C3.10199 26.3645 3.94997 26.9171 4.88002 27.267C5.77182 27.6117 6.78927 27.8523 8.27752 27.9179C9.7709 27.9837 10.247 27.9999 14.0493 27.9999C17.8516 27.9999 18.3275 27.9837 19.8211 27.9179C21.3091 27.8523 22.3321 27.6117 23.2184 27.267C25.1005 26.5395 26.5885 25.0518 27.3162 23.1702C27.6607 22.2786 27.9015 20.2611 27.9671 18.7734C28.0327 17.2801 28.0492 17.8043 28.0492 14.0027C28.0492 10.2012 28.0436 10.7254 27.978 9.23208ZM25.4561 18.664C25.3958 20.0315 25.1661 21.7699 24.9746 22.2622C24.504 23.482 23.5357 24.4501 22.3157 24.9206C21.8233 25.112 21.0794 25.3417 19.717 25.4018C18.2399 25.4676 17.7969 25.4838 14.0602 25.4838C10.3235 25.4838 9.87498 25.4676 8.40318 25.4018C7.03546 25.3417 6.2969 25.112 5.80452 24.9206C5.19738 24.6962 4.64473 24.3407 4.19616 23.8758C3.73114 23.4217 3.37553 22.8747 3.15114 22.2677C2.95966 21.7754 2.72992 20.0315 2.66987 18.6696C2.60405 17.1927 2.58781 17.7496 2.58781 14.0136C2.58781 10.2777 2.60405 10.8292 2.66987 9.35793C2.72992 7.99047 2.95966 6.25205 3.15114 5.75976C3.37553 5.15253 3.73114 4.6002 4.20172 4.15151C4.65563 3.68657 5.20272 3.33103 5.81007 3.1069C6.30245 2.91546 7.04658 2.68577 8.40874 2.62551C9.88588 2.55992 10.3291 2.54347 14.0655 2.54347C17.8078 2.54347 18.2508 2.55992 19.7226 2.62551C21.0903 2.68577 21.8288 2.91546 22.3212 3.1069C22.9284 3.33103 23.481 3.68657 23.9296 4.15151C24.3946 4.60554 24.7502 5.15253 24.9746 5.75976C25.1661 6.25205 25.3958 7.99581 25.4561 9.35793C25.5217 10.8348 25.5381 10.2777 25.5381 14.0136C25.5381 17.7496 25.5217 17.1871 25.4561 18.664Z" fill="white"/>
<path d="M14 7C10.1355 7 7 10.1353 7 14C7 17.8647 10.1355 21 14 21C17.8647 21 21 17.8647 21 14C21 10.1353 17.8647 7 14 7ZM14 18.5407C11.4929 18.5407 9.45927 16.5073 9.45927 14C9.45927 11.4927 11.4929 9.45927 14 9.45927C16.5073 9.45927 18.5407 11.4927 18.5407 14C18.5407 16.5073 16.5073 18.5407 14 18.5407Z" fill="white"/>
<path d="M23 6.5C23 7.32835 22.3284 8 21.4999 8C20.6716 8 20 7.32835 20 6.5C20 5.67146 20.6716 5 21.4999 5C22.3284 5 23 5.67146 23 6.5Z" fill="white"/>
</svg>
