<svg width="132" height="32" viewBox="0 0 132 32" fill="none" xmlns="http://www.w3.org/2000/svg">
<rect width="132" height="32" rx="16" transform="matrix(-1 0 0 1 132 0)" fill="#E6EBEF"/>
<path d="M61.5556 15.3757L68.6758 8.25561C68.8404 8.0908 69.0603 8 69.2947 8C69.5291 8 69.7489 8.0908 69.9136 8.25561L70.438 8.77983C70.7792 9.12142 70.7792 9.6766 70.438 10.0177L64.459 15.9967L70.4446 21.9823C70.6093 22.1471 70.7002 22.3668 70.7002 22.6011C70.7002 22.8357 70.6093 23.0554 70.4446 23.2203L69.9202 23.7444C69.7554 23.9092 69.5357 24 69.3013 24C69.0669 24 68.8471 23.9092 68.6824 23.7444L61.5556 16.6178C61.3905 16.4525 61.2998 16.2317 61.3004 15.9971C61.2998 15.7615 61.3905 15.5409 61.5556 15.3757Z" fill="#ED5A5A"/>
</svg>
