<svg width="64" height="32" viewBox="0 0 64 32" fill="none" xmlns="http://www.w3.org/2000/svg">
<rect width="64" height="32" rx="16" fill="#E6EBEF"/>
<path d="M37.4444 15.3757L30.3242 8.25561C30.1596 8.0908 29.9397 8 29.7053 8C29.4709 8 29.2511 8.0908 29.0864 8.25561L28.562 8.77983C28.2208 9.12142 28.2208 9.6766 28.562 10.0177L34.541 15.9967L28.5554 21.9823C28.3907 22.1471 28.2998 22.3668 28.2998 22.6011C28.2998 22.8357 28.3907 23.0554 28.5554 23.2203L29.0798 23.7444C29.2446 23.9092 29.4643 24 29.6987 24C29.9331 24 30.1529 23.9092 30.3176 23.7444L37.4444 16.6178C37.6095 16.4525 37.7002 16.2317 37.6996 15.9971C37.7002 15.7615 37.6095 15.5409 37.4444 15.3757Z" fill="#ED5A5A"/>
</svg>
