<svg width="64" height="32" viewBox="0 0 64 32" fill="none" xmlns="http://www.w3.org/2000/svg">
<rect width="64" height="32" rx="16" transform="matrix(-1 0 0 1 64 0)" fill="#E6EBEF"/>
<path d="M25.5556 15.3757L32.6758 8.25561C32.8404 8.0908 33.0603 8 33.2947 8C33.5291 8 33.7489 8.0908 33.9136 8.25561L34.438 8.77983C34.7792 9.12142 34.7792 9.6766 34.438 10.0177L28.459 15.9967L34.4446 21.9823C34.6093 22.1471 34.7002 22.3668 34.7002 22.6011C34.7002 22.8357 34.6093 23.0554 34.4446 23.2203L33.9202 23.7444C33.7554 23.9092 33.5357 24 33.3013 24C33.0669 24 32.8471 23.9092 32.6824 23.7444L25.5556 16.6178C25.3905 16.4525 25.2998 16.2317 25.3004 15.9971C25.2998 15.7615 25.3905 15.5409 25.5556 15.3757Z" fill="#ED5A5A"/>
</svg>
