<svg width="132" height="32" viewBox="0 0 132 32" fill="none" xmlns="http://www.w3.org/2000/svg">
<rect width="132" height="32" rx="16" fill="#E6EBEF"/>
<path d="M70.4444 15.3757L63.3242 8.25561C63.1596 8.0908 62.9397 8 62.7053 8C62.4709 8 62.2511 8.0908 62.0864 8.25561L61.562 8.77983C61.2208 9.12142 61.2208 9.6766 61.562 10.0177L67.541 15.9967L61.5554 21.9823C61.3907 22.1471 61.2998 22.3668 61.2998 22.6011C61.2998 22.8357 61.3907 23.0554 61.5554 23.2203L62.0798 23.7444C62.2446 23.9092 62.4643 24 62.6987 24C62.9331 24 63.1529 23.9092 63.3176 23.7444L70.4444 16.6178C70.6095 16.4525 70.7002 16.2317 70.6996 15.9971C70.7002 15.7615 70.6095 15.5409 70.4444 15.3757Z" fill="#ED5A5A"/>
</svg>
